<svg id="Layer_2" height="512" viewBox="0 0 128 128" width="512" xmlns="http://www.w3.org/2000/svg" data-name="Layer 2"><path d="m126.25 79.318a89.837 89.837 0 0 0 -18.678-39.969l2.35-2.35-18.922-18.921-2.35 2.35a89.837 89.837 0 0 0 -39.968-18.678l29.323 29.324-2.02 2.02.842 8.922 9.158 9.158 8.921.841 2.02-2.02z" fill="#00acc1"/><path d="m107.572 39.349 2.35-2.35-5.875-5.875-2.35 2.35a89.837 89.837 0 0 1 18.678 39.969l-26.93-26.93-2.02 2.02-8.925-.841 3.481 3.481 8.921.841 2.02-2.02 29.328 29.324a89.837 89.837 0 0 0 -18.678-39.969z" fill="#0097a7"/><path d="m37.392 31.045h12.95v106.175h-12.95z" fill="#fb8c00" transform="matrix(.707 .707 -.707 .707 72.339 -6.377)"/><path d="m97.218 19.736h12.95v9.142h-12.95z" fill="#fb8c00" transform="matrix(.707 .707 -.707 .707 47.559 -66.203)"/><path d="m-6.36 84.562h106.175v4.861h-106.175z" fill="#ef6c00" transform="matrix(.707 -.707 .707 .707 -47.827 58.521)"/><path d="m101.982 24.736h9.142v4.861h-9.142z" fill="#ef6c00" transform="matrix(.707 -.707 .707 .707 11.999 83.301)"/><path d="m96.95 41.957a1.744 1.744 0 0 1 -1.237-.513l-9.157-9.157a1.75 1.75 0 0 1 2.475-2.475l9.157 9.157a1.75 1.75 0 0 1 -1.237 2.987z" fill="#0097a7"/><g fill="#28201e"><path d="m127.969 78.99a91.487 91.487 0 0 0 -7.469-22.59 1.75 1.75 0 0 0 -3.152 1.521 88.032 88.032 0 0 1 5.857 15.879l-25.041-25.043a1.749 1.749 0 0 0 -2.475 0l-1.438 1.443-7.474-.705-8.267-8.271-.705-7.475 1.438-1.438a1.749 1.749 0 0 0 0-2.475l-25.043-25.036a88.454 88.454 0 0 1 33.34 16.986 1.752 1.752 0 0 0 2.344-.118l1.116-1.115 3.645 3.647 9.158 9.158 3.644 3.642-1.113 1.113a1.75 1.75 0 0 0 -.118 2.344 88.678 88.678 0 0 1 6.371 8.865 1.75 1.75 0 0 0 2.963-1.863 92.411 92.411 0 0 0 -5.631-7.98l1.241-1.241a1.75 1.75 0 0 0 0-2.475l-3.644-3.644 5.227-5.227a1.749 1.749 0 0 0 0-2.475l-9.157-9.157a1.749 1.749 0 0 0 -2.475 0l-5.227 5.227-3.644-3.644a1.75 1.75 0 0 0 -2.475 0l-1.241 1.241a91.881 91.881 0 0 0 -39.514-18.053 1.75 1.75 0 0 0 -1.566 2.956l28.086 28.087-.782.783a1.75 1.75 0 0 0 -.5 1.4l.764 8.1-14.078 14.077a1.75 1.75 0 0 0 2.475 2.475l13.418-13.418 6.682 6.682-72.6 72.6-6.682-6.682 43.855-43.856a1.75 1.75 0 1 0 -2.475-2.475l-45.094 45.095a1.749 1.749 0 0 0 0 2.475l9.157 9.157a1.749 1.749 0 0 0 2.475 0l74.494-74.494 8.1.764a1.733 1.733 0 0 0 1.4-.5l.783-.782 28.086 28.086a1.75 1.75 0 0 0 2.956-1.566zm-25.622-60.019 6.683 6.683-3.989 3.989-6.684-6.683z"/><path d="m54.249 67.068 2.993-2.993a1.75 1.75 0 0 0 -2.475-2.475l-2.993 2.993a1.75 1.75 0 1 0 2.475 2.475z"/><path d="m86.556 29.813a1.749 1.749 0 0 0 0 2.475l9.157 9.157a1.75 1.75 0 0 0 2.475-2.475l-9.158-9.157a1.749 1.749 0 0 0 -2.474 0z"/></g></svg>